<?xml version="1.0" encoding="UTF-8" standalone="no" ?>
<!DOCTYPE svg PUBLIC "-//W3C//DTD SVG 1.1//EN" "http://www.w3.org/Graphics/SVG/1.1/DTD/svg11.dtd">
<svg xmlns="http://www.w3.org/2000/svg" xmlns:xlink="http://www.w3.org/1999/xlink" version="1.1" width="500" height="500" viewBox="0 0 500 500" xml:space="preserve">
<desc>Created with Fabric.js 4.6.0</desc>
<defs>
</defs>
<g transform="matrix(6 0 0 6 468.73 478.45)" id="KBVKC1gqVbv-OCDvU6UCa"  >
<line style="stroke: none; stroke-width: 1; stroke-dasharray: none; stroke-linecap: butt; stroke-dashoffset: 0; stroke-linejoin: miter; stroke-miterlimit: 4; fill: rgb(13,110,253); fill-rule: nonzero; opacity: 1;" vector-effect="non-scaling-stroke"  x1="0" y1="0.6499999999999986" x2="0" y2="-0.6499999999999986" />
</g>
<g transform="matrix(6 0 0 6 233.8 208.42)" id="ZSgouxzkydS5_neJTvVeX"  >
<path style="stroke: none; stroke-width: 1; stroke-dasharray: none; stroke-linecap: butt; stroke-dashoffset: 0; stroke-linejoin: miter; stroke-miterlimit: 4; fill: rgb(13,110,253); fill-rule: nonzero; opacity: 1;" vector-effect="non-scaling-stroke"  transform=" translate(-49.05, -41.45)" d="M 63.8 69.5 C 61.5 69.5 59.4 69.2 57.5 68.6 C 55.7 68 54 67.1 52.7 66 C 51.400000000000006 64.9 50.300000000000004 63.5 49.6 62 C 48.9 60.5 48.5 58.6 48.5 56.7 C 48.5 48 54.7 43.6 67.1 43.6 L 72.6 43.6 L 72.6 37.1 L 67.3 37.1 C 56.3 37.1 50.8 33 50.8 24.8 C 50.8 17.200000000000003 55 13.4 63.4 13.4 C 68.1 13.4 72.5 15 76.6 18.2 L 76.6 10.799999999999999 C 72.5 8.3 67.4 7 61.5 7 C 58.7 7 56.2 7.4 53.9 8.2 C 51.6 9 49.699999999999996 10.1 48.1 11.5 C 46.5 12.9 45.2 14.6 44.4 16.5 C 44.199999999999996 16.9 44.1 17.3 43.9 17.7 L 43.9 8.1 L 36.1 8.1 L 36.1 51 C 36.1 62.9 32.6 68.9 25.5 68.9 C 22.8 68.9 20.7 68.30000000000001 19 67.10000000000001 L 19 74.80000000000001 C 20.7 75.50000000000001 22.8 75.9 25.4 75.9 C 31 75.9 35.5 73.7 38.8 69.30000000000001 C 40.099999999999994 67.60000000000001 41.199999999999996 65.60000000000001 41.9 63.40000000000001 C 42 63.600000000000016 42.1 63.90000000000001 42.199999999999996 64.10000000000001 C 43.3 66.60000000000001 44.9 68.7 46.99999999999999 70.4 C 49.09999999999999 72.10000000000001 51.49999999999999 73.5 54.39999999999999 74.5 C 57.29999999999999 75.5 60.49999999999999 75.9 63.89999999999999 75.9 C 70.3 75.9 75.3 74.7 79.1 72.30000000000001 L 79.1 64.10000000000001 C 74.8 67.7 69.6 69.5 63.8 69.5 z M 45.1 45 C 44.7 45.4 44.300000000000004 45.9 43.9 46.3 L 43.9 29 C 45.6 34.4 49.699999999999996 38 56.3 39.8 L 56.3 40 C 54 40.2 52 40.8 50 41.7 C 48.2 42.5 46.5 43.6 45.1 45 z" stroke-linecap="round" />
</g>
<g transform="matrix(6 0 0 6 48.98 475.45)" id="nQpfLS3GG0H_rz-QZ_kWV"  >
<path style="stroke: none; stroke-width: 1; stroke-dasharray: none; stroke-linecap: butt; stroke-dashoffset: 0; stroke-linejoin: miter; stroke-miterlimit: 4; fill: rgb(13,110,253); fill-rule: nonzero; opacity: 1;" vector-effect="non-scaling-stroke"  transform=" translate(-18.25, -85.95)" d="M 15.3 82.2 L 18 82.2 C 19.9 82.2 21.2 82.8 21.2 84.5 C 21.2 86.2 19.8 86.9 18 86.9 L 16.8 86.9 L 16.8 89.7 L 15.3 89.7 L 15.3 82.2 z M 17.9 85.9 C 19.099999999999998 85.9 19.7 85.5 19.7 84.5 C 19.7 83.6 19.099999999999998 83.3 17.8 83.3 L 16.8 83.3 L 16.8 85.89999999999999 L 17.9 85.89999999999999 z" stroke-linecap="round" />
</g>
<g transform="matrix(6 0 0 6 95.48 475.15)" id="ALSigkGzyGsDSnYBGTbUh"  >
<path style="stroke: none; stroke-width: 1; stroke-dasharray: none; stroke-linecap: butt; stroke-dashoffset: 0; stroke-linejoin: miter; stroke-miterlimit: 4; fill: rgb(13,110,253); fill-rule: nonzero; opacity: 1;" vector-effect="non-scaling-stroke"  transform=" translate(-26, -85.9)" d="M 22.3 85.9 C 22.3 83.5 23.8 82 26 82 C 28.2 82 29.7 83.4 29.7 85.9 C 29.7 88.30000000000001 28.2 89.80000000000001 26 89.80000000000001 C 23.8 89.80000000000001 22.3 88.3 22.3 85.9 z M 28.2 85.9 C 28.2 84.2 27.4 83.2 26 83.2 C 24.6 83.2 23.8 84.2 23.8 85.9 C 23.8 87.60000000000001 24.6 88.7 26 88.7 C 27.4 88.7 28.2 87.6 28.2 85.9 z" stroke-linecap="round" />
</g>
<g transform="matrix(6 0 0 6 146.49 475.45)" id="NJZs1sHmwgMi6tErf8K-X"  >
<path style="stroke: none; stroke-width: 1; stroke-dasharray: none; stroke-linecap: butt; stroke-dashoffset: 0; stroke-linejoin: miter; stroke-miterlimit: 4; fill: rgb(13,110,253); fill-rule: nonzero; opacity: 1;" vector-effect="non-scaling-stroke"  transform=" translate(-34.5, -85.95)" d="M 31.4 82.2 L 34.199999999999996 82.2 C 35.9 82.2 37.3 82.7 37.3 84.4 C 37.3 86 36 86.7 34.199999999999996 86.7 L 32.9 86.7 L 32.9 89.60000000000001 L 31.4 89.60000000000001 L 31.4 82.2 z M 34 85.7 C 35.1 85.7 35.8 85.3 35.8 84.4 C 35.8 83.5 35.199999999999996 83.2 34 83.2 L 32.8 83.2 L 32.8 85.60000000000001 L 34 85.60000000000001 z M 33.9 86.4 L 35 85.60000000000001 L 37.6 89.7 L 35.9 89.7 L 33.9 86.4 z" stroke-linecap="round" />
</g>
<g transform="matrix(6 0 0 6 188.19 475.45)" id="FaEPGjnU57OauQPS8l5Dn"  >
<path style="stroke: none; stroke-width: 1; stroke-dasharray: none; stroke-linecap: butt; stroke-dashoffset: 0; stroke-linejoin: miter; stroke-miterlimit: 4; fill: rgb(13,110,253); fill-rule: nonzero; opacity: 1;" vector-effect="non-scaling-stroke"  transform=" translate(-41.45, -85.95)" d="M 40.7 83.3 L 38.300000000000004 83.3 L 38.300000000000004 82.2 L 44.6 82.2 L 44.6 83.3 L 42.2 83.3 L 42.2 89.7 L 40.7 89.7 L 40.7 83.3 z" stroke-linecap="round" />
</g>
<g transform="matrix(6 0 0 6 230.8 475.15)" id="ULAPuALZaHWSI9FBOB-fp"  >
<path style="stroke: none; stroke-width: 1; stroke-dasharray: none; stroke-linecap: butt; stroke-dashoffset: 0; stroke-linejoin: miter; stroke-miterlimit: 4; fill: rgb(13,110,253); fill-rule: nonzero; opacity: 1;" vector-effect="non-scaling-stroke"  transform=" translate(-48.55, -85.9)" d="M 46.1 82.2 L 51.1 82.2 L 51.1 83.3 L 47.5 83.3 L 47.5 85.39999999999999 L 50.5 85.39999999999999 L 50.5 86.49999999999999 L 47.5 86.49999999999999 L 47.5 89.59999999999998 L 46 89.59999999999998 L 46 82.2 z" stroke-linecap="round" />
</g>
<g transform="matrix(6 0 0 6 274.9 475.15)" id="MjdlwFVhVG-NW7h3p7eTP"  >
<path style="stroke: none; stroke-width: 1; stroke-dasharray: none; stroke-linecap: butt; stroke-dashoffset: 0; stroke-linejoin: miter; stroke-miterlimit: 4; fill: rgb(13,110,253); fill-rule: nonzero; opacity: 1;" vector-effect="non-scaling-stroke"  transform=" translate(-55.9, -85.9)" d="M 52.2 85.9 C 52.2 83.5 53.7 82 55.900000000000006 82 C 58.10000000000001 82 59.60000000000001 83.4 59.60000000000001 85.9 C 59.60000000000001 88.30000000000001 58.10000000000001 89.80000000000001 55.900000000000006 89.80000000000001 C 53.7 89.8 52.2 88.3 52.2 85.9 z M 58.1 85.9 C 58.1 84.2 57.300000000000004 83.2 55.9 83.2 C 54.49999999999999 83.2 53.699999999999996 84.2 53.699999999999996 85.9 C 53.699999999999996 87.60000000000001 54.49999999999999 88.7 55.9 88.7 C 57.300000000000004 88.7 58.1 87.6 58.1 85.9 z" stroke-linecap="round" />
</g>
<g transform="matrix(6 0 0 6 322.31 475.45)" id="BLra_9HjmReNKNc09nlE7"  >
<path style="stroke: none; stroke-width: 1; stroke-dasharray: none; stroke-linecap: butt; stroke-dashoffset: 0; stroke-linejoin: miter; stroke-miterlimit: 4; fill: rgb(13,110,253); fill-rule: nonzero; opacity: 1;" vector-effect="non-scaling-stroke"  transform=" translate(-63.8, -85.95)" d="M 61.3 82.2 L 62.8 82.2 L 62.8 88.60000000000001 L 66.3 88.60000000000001 L 66.3 89.7 L 61.3 89.7 L 61.3 82.2 z" stroke-linecap="round" />
</g>
<g transform="matrix(6 0 0 6 350.21 475.45)" id="SRdgtA27clh6xcsg7aMOV"  >
<path style="stroke: none; stroke-width: 1; stroke-dasharray: none; stroke-linecap: butt; stroke-dashoffset: 0; stroke-linejoin: miter; stroke-miterlimit: 4; fill: rgb(13,110,253); fill-rule: nonzero; opacity: 1;" vector-effect="non-scaling-stroke"  transform=" translate(-68.45, -85.95)" d="M 67.7 82.2 L 69.2 82.2 L 69.2 89.7 L 67.7 89.7 L 67.7 82.2 z" stroke-linecap="round" />
</g>
<g transform="matrix(6 0 0 6 386.52 475.15)" id="JD2eUU8LX4-t6VP3sqkRp"  >
<path style="stroke: none; stroke-width: 1; stroke-dasharray: none; stroke-linecap: butt; stroke-dashoffset: 0; stroke-linejoin: miter; stroke-miterlimit: 4; fill: rgb(13,110,253); fill-rule: nonzero; opacity: 1;" vector-effect="non-scaling-stroke"  transform=" translate(-74.5, -85.9)" d="M 70.8 85.9 C 70.8 83.5 72.3 82 74.5 82 C 76.7 82 78.2 83.4 78.2 85.9 C 78.2 88.30000000000001 76.7 89.80000000000001 74.5 89.80000000000001 C 72.4 89.8 70.8 88.3 70.8 85.9 z M 76.7 85.9 C 76.7 84.2 75.9 83.2 74.5 83.2 C 73.1 83.2 72.3 84.2 72.3 85.9 C 72.3 87.60000000000001 73.1 88.7 74.5 88.7 C 75.9 88.7 76.7 87.6 76.7 85.9 z" stroke-linecap="round" />
</g>
<g transform="matrix(6 0 0 6 433.62 475.75)" id="L9YnxrC9owr9mT0_2oPZV"  >
<path style="stroke: none; stroke-width: 1; stroke-dasharray: none; stroke-linecap: butt; stroke-dashoffset: 0; stroke-linejoin: miter; stroke-miterlimit: 4; fill: rgb(13,110,253); fill-rule: nonzero; opacity: 1;" vector-effect="non-scaling-stroke"  transform=" translate(-82.35, -86)" d="M 79.3 88.7 L 80.2 87.8 C 80.8 88.3 81.60000000000001 88.7 82.4 88.7 C 83.30000000000001 88.7 83.9 88.3 83.9 87.7 C 83.9 87.10000000000001 83.4 86.9 82.60000000000001 86.60000000000001 L 81.50000000000001 86.2 C 80.70000000000002 85.9 79.80000000000001 85.3 79.80000000000001 84.2 C 79.80000000000001 83 81.00000000000001 82.10000000000001 82.60000000000001 82.10000000000001 C 83.60000000000001 82.10000000000001 84.50000000000001 82.50000000000001 85.2 83.10000000000001 L 84.4 83.9 C 83.9 83.5 83.30000000000001 83.30000000000001 82.60000000000001 83.30000000000001 C 81.80000000000001 83.30000000000001 81.30000000000001 83.60000000000001 81.30000000000001 84.20000000000002 C 81.30000000000001 84.80000000000001 81.9 85.00000000000001 82.60000000000001 85.30000000000001 L 83.7 85.70000000000002 C 84.7 86.10000000000002 85.4 86.60000000000002 85.4 87.70000000000002 C 85.4 88.90000000000002 84.30000000000001 89.90000000000002 82.4 89.90000000000002 C 81.2 89.8 80.1 89.4 79.3 88.7 z" stroke-linecap="round" />
</g>
</svg>